<?xml version="1.0" encoding="UTF-8"?>
<svg version="1.1" viewBox="0 0 2000 2000" width="500" height="500" xmlns="http://www.w3.org/2000/svg">
<path transform="translate(0)" d="m0 0h2e3v2e3h-2e3z" fill="#FEFEFE"/>
<path transform="translate(1338,1055)" d="m0 0h26l16 4 14 7 8 6 8 10 6 10 5 12 3 12 1 7v27l-3 17-6 16-7 11-11 11-11 7-14 5-9 2-16 1-14-2-16-5-12-7-7-6-10-14-6-13-4-15-1-6v-29l3-16 6-16 7-11 8-9 10-7 11-5z" fill="#792ADB"/>
<path transform="translate(600,933)" d="m0 0h814l27 1v22h-853l-1-1v-19l1-2z" fill="#792ADB"/>
<path transform="translate(590,1006)" d="m0 0h36l6 15 23 65 9 24 10 29 16 44h2l11-31 16-44 35-98 2-4h35l1 209-1 1h-23l-1-172h-2l-3 9-11 30-23 64-16 44-9 24-2 1h-23l-4-9-16-44-13-36-22-61-8-20v-2h-2v171l-2 1h-21l-1-1v-208z" fill="#792ADB"/>
<path transform="translate(1079,1055)" d="m0 0h22l11 3 6 3 8 7 6 9 2 7h3l2-5 11-12 12-8 13-4h22l12 3 10 6 7 7 6 11 3 13 1 120-1 1h-23l-1-2v-59l-1-56-3-10-5-7-7-4-4-1h-19l-11 4-10 9-6 9-4 12-1 6-1 98-2 1h-22l-1-108-1-12-6-12-5-4-8-3h-19l-11 4-10 9-6 9-4 12-1 9-1 95-1 1h-23v-158l21-1 2 2v22l5-4 7-8 7-6 11-6z" fill="#792ADB"/>
<path transform="translate(900,1055)" d="m0 0h25l16 4 11 6 10 9 7 10 5 12 3 14v30l-1 2-4 1h-107l5 25 7 14 8 7 10 5 8 2h24l10-3 8-5 9-10 4-6 7 3 10 6-1 6-9 13-9 8-16 8-14 3-11 1-15-1-16-4-14-7-10-9-6-7-8-16-4-12-2-12v-27l3-18 6-16 7-11 8-9 10-7 13-6z" fill="#792ADB"/>
<path transform="translate(1344,1076)" d="m0 0h14l13 3 9 5 7 6 6 9 4 10 3 18v21l-3 17-5 12-7 9-8 6-10 4-12 2-14-1-13-4-9-6-7-8-4-8-4-15-1-7v-24l3-17 4-10 8-10 8-6 9-4z" fill="#FEFEFE"/>
<path transform="translate(905,1075)" d="m0 0h13l10 2 10 5 8 9 5 11 3 16v4l-80 1-8-1 1-10 4-13 7-11 10-8 11-4z" fill="#FEFEFE"/>
</svg>
